REM DIRINDEX 1\2\3,1\2\4,1\2\5,1\2\6
REM DIRNAME cjc157,folder01,folder02,folder03,folder04,folder05
TITLE ""
FILE "082 082.mp3" MP3
  TRACK 01 AUDIO
    TITLE "0:"
    INDEX 01 00:00:00
  TRACK 02 AUDIO
    TITLE "3:cjc157_3089"
    INDEX 01 00:00:09
  TRACK 03 AUDIO
    TITLE "0:"
    INDEX 01 00:01:17
  TRACK 04 AUDIO
    TITLE "4:cjc157_3090"
    INDEX 01 00:01:62
  TRACK 05 AUDIO
    TITLE "0:"
    INDEX 01 00:02:67
  TRACK 06 AUDIO
    TITLE "5:cjc157_3091"
    INDEX 01 00:03:41
  TRACK 07 AUDIO
    TITLE "0:"
    INDEX 01 00:05:48
  TRACK 08 AUDIO
    TITLE "5:cjc157_3092"
    INDEX 01 00:06:14
  TRACK 09 AUDIO
    TITLE "0:"
    INDEX 01 00:07:72
  TRACK 10 AUDIO
    TITLE "3:cjc157_3093"
    INDEX 01 00:08:44
  TRACK 11 AUDIO
    TITLE "0:"
    INDEX 01 00:09:55
  TRACK 12 AUDIO
    TITLE "4:cjc157_3094"
    INDEX 01 00:10:27
  TRACK 13 AUDIO
    TITLE "0:"
    INDEX 01 00:11:58
  TRACK 14 AUDIO
    TITLE "5:cjc157_3095"
    INDEX 01 00:12:30
  TRACK 15 AUDIO
    TITLE "0:"
    INDEX 01 00:14:31
  TRACK 16 AUDIO
    TITLE "5:cjc157_3096"
    INDEX 01 00:15:05
  TRACK 17 AUDIO
    TITLE "0:"
    INDEX 01 00:17:06
  TRACK 18 AUDIO
    TITLE "3:cjc157_3097"
    INDEX 01 00:17:51
  TRACK 19 AUDIO
    TITLE "0:"
    INDEX 01 00:18:44
  TRACK 20 AUDIO
    TITLE "4:cjc157_3098"
    INDEX 01 00:19:16
  TRACK 21 AUDIO
    TITLE "0:"
    INDEX 01 00:20:12
  TRACK 22 AUDIO
    TITLE "5:cjc157_3099"
    INDEX 01 00:20:63
  TRACK 23 AUDIO
    TITLE "0:"
    INDEX 01 00:22:48
  TRACK 24 AUDIO
    TITLE "5:cjc157_3100"
    INDEX 01 00:23:20
  TRACK 25 AUDIO
    TITLE "0:"
    INDEX 01 00:25:15
  TRACK 26 AUDIO
    TITLE "5:cjc157_3101"
    INDEX 01 00:25:66
  TRACK 27 AUDIO
    TITLE "0:"
    INDEX 01 00:27:00
  TRACK 28 AUDIO
    TITLE "3:cjc157_3102"
    INDEX 01 00:27:47
  TRACK 29 AUDIO
    TITLE "0:"
    INDEX 01 00:28:74
  TRACK 30 AUDIO
    TITLE "4:cjc157_3103"
    INDEX 01 00:29:44
  TRACK 31 AUDIO
    TITLE "0:"
    INDEX 01 00:30:54
  TRACK 32 AUDIO
    TITLE "5:cjc157_3104"
    INDEX 01 00:31:22
  TRACK 33 AUDIO
    TITLE "0:"
    INDEX 01 00:33:03
  TRACK 34 AUDIO
    TITLE "3:cjc157_3105"
    INDEX 01 00:33:50
  TRACK 35 AUDIO
    TITLE "0:"
    INDEX 01 00:34:53
  TRACK 36 AUDIO
    TITLE "4:cjc157_3106"
    INDEX 01 00:35:25
  TRACK 37 AUDIO
    TITLE "0:"
    INDEX 01 00:36:50
  TRACK 38 AUDIO
    TITLE "5:cjc157_3107"
    INDEX 01 00:37:16
  TRACK 39 AUDIO
    TITLE "0:"
    INDEX 01 00:39:52
  TRACK 40 AUDIO
    TITLE "5:cjc157_3108"
    INDEX 01 00:40:21
  TRACK 41 AUDIO
    TITLE "0:"
    INDEX 01 00:42:08
  TRACK 42 AUDIO
    TITLE "3:cjc157_3109"
    INDEX 01 00:42:51
  TRACK 43 AUDIO
    TITLE "0:"
    INDEX 01 00:43:46
  TRACK 44 AUDIO
    TITLE "4:cjc157_3110"
    INDEX 01 00:44:18
  TRACK 45 AUDIO
    TITLE "0:"
    INDEX 01 00:45:39
  TRACK 46 AUDIO
    TITLE "5:cjc157_3111"
    INDEX 01 00:46:07
  TRACK 47 AUDIO
    TITLE "0:"
    INDEX 01 00:48:20
  TRACK 48 AUDIO
    TITLE "5:cjc157_3112"
    INDEX 01 00:48:69
  TRACK 49 AUDIO
    TITLE "0:"
    INDEX 01 00:51:09
  TRACK 50 AUDIO
    TITLE "3:cjc157_3113"
    INDEX 01 00:51:56
  TRACK 51 AUDIO
    TITLE "0:"
    INDEX 01 00:53:00
  TRACK 52 AUDIO
    TITLE "4:cjc157_3114"
    INDEX 01 00:53:45
  TRACK 53 AUDIO
    TITLE "0:"
    INDEX 01 00:55:14
  TRACK 54 AUDIO
    TITLE "5:cjc157_3115"
    INDEX 01 00:55:61
  TRACK 55 AUDIO
    TITLE "0:"
    INDEX 01 00:59:18
  TRACK 56 AUDIO
    TITLE "5:cjc157_3116"
    INDEX 01 00:59:65
  TRACK 57 AUDIO
    TITLE "0:"
    INDEX 01 01:01:17
  TRACK 58 AUDIO
    TITLE "3:cjc157_3117"
    INDEX 01 01:01:60
  TRACK 59 AUDIO
    TITLE "0:"
    INDEX 01 01:02:71
  TRACK 60 AUDIO
    TITLE "4:cjc157_3118"
    INDEX 01 01:03:39
  TRACK 61 AUDIO
    TITLE "0:"
    INDEX 01 01:04:74
  TRACK 62 AUDIO
    TITLE "5:cjc157_3119"
    INDEX 01 01:05:44
  TRACK 63 AUDIO
    TITLE "0:"
    INDEX 01 01:07:45
  TRACK 64 AUDIO
    TITLE "5:cjc157_3120"
    INDEX 01 01:08:09
  TRACK 65 AUDIO
    TITLE "0:"
    INDEX 01 01:10:47
  TRACK 66 AUDIO
    TITLE "5:cjc157_3121"
    INDEX 01 01:11:19
  TRACK 67 AUDIO
    TITLE "0:"
    INDEX 01 01:12:26
  TRACK 68 AUDIO
    TITLE "3:cjc157_3122"
    INDEX 01 01:12:68
  TRACK 69 AUDIO
    TITLE "0:"
    INDEX 01 01:14:16
  TRACK 70 AUDIO
    TITLE "4:cjc157_3123"
    INDEX 01 01:14:65
  TRACK 71 AUDIO
    TITLE "0:"
    INDEX 01 01:16:11
  TRACK 72 AUDIO
    TITLE "5:cjc157_3124"
    INDEX 01 01:16:56
  TRACK 73 AUDIO
    TITLE "0:"
    INDEX 01 01:18:66
  TRACK 74 AUDIO
    TITLE "5:cjc157_3125"
    INDEX 01 01:19:30
  TRACK 75 AUDIO
    TITLE "0:"
    INDEX 01 01:20:73
  TRACK 76 AUDIO
    TITLE "3:cjc157_3126"
    INDEX 01 01:21:55
  TRACK 77 AUDIO
    TITLE "0:"
    INDEX 01 01:23:01
  TRACK 78 AUDIO
    TITLE "4:cjc157_3127"
    INDEX 01 01:23:46
  TRACK 79 AUDIO
    TITLE "0:"
    INDEX 01 01:24:49
  TRACK 80 AUDIO
    TITLE "5:cjc157_3128"
    INDEX 01 01:25:19
  TRACK 81 AUDIO
    TITLE "0:"
    INDEX 01 01:28:12
